<svg width="31" height="28" viewBox="0 0 31 28" fill="none" xmlns="http://www.w3.org/2000/svg">
<g id="material-symbols:search-rounded">
<path id="Vector" d="M12.2747 18.6667C9.92821 18.6667 7.94249 17.9324 6.31757 16.464C4.69266 14.9956 3.87977 13.202 3.87891 11.0833C3.87891 8.96389 4.6918 7.17033 6.31757 5.70267C7.94335 4.235 9.92907 3.50078 12.2747 3.5C14.6213 3.5 16.607 4.23422 18.2319 5.70267C19.8568 7.17111 20.6697 8.96467 20.6706 11.0833C20.6706 11.9389 20.5199 12.7458 20.2185 13.5042C19.9171 14.2625 19.5081 14.9333 18.9914 15.5167L26.2247 22.05C26.4615 22.2639 26.5799 22.5361 26.5799 22.8667C26.5799 23.1972 26.4615 23.4694 26.2247 23.6833C25.9879 23.8972 25.6865 24.0042 25.3206 24.0042C24.9546 24.0042 24.6532 23.8972 24.4164 23.6833L17.1831 17.15C16.5372 17.6167 15.7945 17.9861 14.9549 18.2583C14.1154 18.5306 13.222 18.6667 12.2747 18.6667ZM12.2747 16.3333C13.8893 16.3333 15.2619 15.8227 16.3926 14.8015C17.5232 13.7803 18.0881 12.5409 18.0872 11.0833C18.0872 9.625 17.5219 8.38522 16.3913 7.364C15.2606 6.34278 13.8885 5.83256 12.2747 5.83333C10.6602 5.83333 9.28754 6.34394 8.15691 7.36517C7.02627 8.38639 6.46138 9.62578 6.46224 11.0833C6.46224 12.5417 7.02756 13.7814 8.1582 14.8027C9.28884 15.8239 10.661 16.3341 12.2747 16.3333Z" fill="#8093A5"/>
</g>
</svg>
