<svg width="19" height="19" viewBox="0 0 19 19" fill="none" xmlns="http://www.w3.org/2000/svg">
<g id="material-symbols:settings-account-box">
<path id="Vector" d="M11.3734 17.75C11.0609 17.75 10.7952 17.6405 10.5762 17.4215C10.3572 17.2025 10.2479 16.937 10.2484 16.625V11.375C10.2484 11.0625 10.3579 10.7968 10.5769 10.5778C10.7959 10.3588 11.0614 10.2495 11.3734 10.25H16.6234C16.9359 10.25 17.2017 10.3595 17.4207 10.5785C17.6397 10.7975 17.7489 11.063 17.7484 11.375V16.625C17.7484 16.9375 17.6389 17.2032 17.4199 17.4222C17.2009 17.6412 16.9354 17.7505 16.6234 17.75H11.3734ZM11.3734 16.625H16.6234V16.025C16.3109 15.6375 15.9297 15.328 15.4797 15.0965C15.0297 14.865 14.5359 14.7495 13.9984 14.75C13.4609 14.75 12.9672 14.8657 12.5172 15.0972C12.0672 15.3287 11.6859 15.638 11.3734 16.025V16.625ZM13.9984 14C14.3109 14 14.5767 13.8905 14.7957 13.6715C15.0147 13.4525 15.1239 13.187 15.1234 12.875C15.1234 12.5625 15.0139 12.2968 14.7949 12.0778C14.5759 11.8588 14.3104 11.7495 13.9984 11.75C13.6859 11.75 13.4202 11.8595 13.2012 12.0785C12.9822 12.2975 12.8729 12.563 12.8734 12.875C12.8734 13.1875 12.9829 13.4532 13.2019 13.6722C13.4209 13.8912 13.6864 14.0005 13.9984 14ZM7.43594 17L7.13594 14.6C6.97344 14.5375 6.82019 14.4625 6.67619 14.375C6.53219 14.2875 6.39169 14.1938 6.25469 14.0938L4.02344 15.0312L1.96094 11.4688L3.89219 10.0063C3.87969 9.91875 3.87344 9.83425 3.87344 9.75275V9.24725C3.87344 9.16575 3.87969 9.08125 3.89219 8.99375L1.96094 7.53125L4.02344 3.96875L6.25469 4.90625C6.39219 4.80625 6.53594 4.7125 6.68594 4.625C6.83594 4.5375 6.98594 4.4625 7.13594 4.4L7.43594 2H11.5609L11.8609 4.4C12.0234 4.4625 12.1767 4.5375 12.3207 4.625C12.4647 4.7125 12.6052 4.80625 12.7422 4.90625L14.9734 3.96875L17.0359 7.53125L15.4422 8.75H12.0484C11.8734 8.2125 11.5609 7.7655 11.1109 7.409C10.6609 7.0525 10.1359 6.8745 9.53594 6.875C8.81094 6.875 8.19219 7.13125 7.67969 7.64375C7.16719 8.15625 6.91094 8.775 6.91094 9.5C6.91094 10.1 7.07969 10.625 7.41719 11.075C7.75469 11.525 8.19844 11.8375 8.74844 12.0125V17H7.43594Z" fill="black"/>
</g>
</svg>
